PathFileType	4	(X/Y/Z)	36_2_rein_111_p1_0-398.trc
DataRate	CameraRate	NumFrames	NumMarkers	Units	OrigDataRate	OrigDataStartFrame	OrigNumFrames
52.0	52.0	6	27	m	52.0	249	399
Frame#	Time	RHip			RKnee			RAnkle			RBigToe			RSmallToe			RHeel			LHip			LKnee			LAnkle			LBigToe			LSmallToe			LHeel			Neck			Head			Nose			RShoulder			RElbow			RWrist			RThumb			RIndex			RPinky			LShoulder			LElbow			LWrist			LThumb			LIndex			LPinky			
		X1	Y1	Z1	X2	Y2	Z2	X3	Y3	Z3	X4	Y4	Z4	X5	Y5	Z5	X6	Y6	Z6	X7	Y7	Z7	X8	Y8	Z8	X9	Y9	Z9	X10	Y10	Z10	X11	Y11	Z11	X12	Y12	Z12	X13	Y13	Z13	X14	Y14	Z14	X15	Y15	Z15	X16	Y16	Z16	X17	Y17	Z17	X18	Y18	Z18	X19	Y19	Z19	X20	Y20	Z20	X21	Y21	Z21	X22	Y22	Z22	X23	Y23	Z23	X24	Y24	Z24	X25	Y25	Z25	X26	Y26	Z26	X27	Y27	Z27	
249	4.788461538461538	0.319122057799084	0.5454676832999446	-0.1531449981987983	0.3558104742480243	0.6598607856213597	0.27766878680439594	0.3830449928310389	0.7517379705816454	0.72118738181308	0.3193534149478195	0.4997662544720521	0.7374509016743568	0.3933231218398164	0.5472608881201032	0.7488584406297	0.353156477967997	0.8423782067498896	0.7815036470251111	0.12057762026800267	0.5343849794157901	-0.14354791993020072	0.14509475539280506	0.650059018703174	0.30135910096619306	0.17805884832954968	0.7123607255966065	0.7024853145004922	0.1845750574724132	0.5197513179625716	0.7457478452735221	0.1289846769915573	0.5783388206771265	0.7668062371698122	0.19166295278059928	0.7830649083338124	0.7832960519963573	0.16900433287848274	0.46525849202324243	-0.7544792949284728	0.13538834664970437	0.36731548680479975	-1.0242262795357988	0.15281819116780038	0.32203990798478466	-0.8485736906831863	0.3457298545150753	0.5169809582502694	-0.6998813894156615	0.4340090837166038	0.6094067934824158	-0.46227738604327007	0.4197367198516898	0.3335012220883615	-0.32604874780219634	0.3738984620214385	0.2051522659357778	-0.27116812682614	0.38780412040897727	0.21109603147667083	-0.2557124296019755	0.4227853926786966	0.2748354150401611	-0.23674369387816047	0.0013915122889835059	0.5049379393354544	-0.6706344009531899	-0.04440143806049611	0.6035834458424176	-0.4127991644097997	-0.008910025619141247	0.39741079457376344	-0.26963715630608764	0.0550397139519903	0.2877571998921304	-0.24230666644703117	0.034959716396370584	0.26886625403175307	-0.22275924339607	0.02128445010020942	0.30669066413626955	-0.18159715527071746
250	4.8076923076923075	0.3228227656040027	0.5581816488371344	-0.1514615119177041	0.35512989614369517	0.6608786770437007	0.27378387788811176	0.383055869393998	0.751770876991062	0.7212672656459422	0.32320904288983127	0.5124046691612902	0.7429860227842553	0.3956856180435306	0.5585768062626478	0.7497999256452725	0.35321601684390064	0.8424417259819296	0.7815449213341658	0.1200550206775234	0.5348504294838974	-0.14719317591629247	0.1449149475518375	0.6503419171096319	0.30157048981906875	0.17806129231125373	0.712675689988082	0.7026052673501817	0.18448714008788944	0.5199024967990167	0.7457336580912434	0.1290053253152873	0.5780789576037354	0.7665970603535802	0.19146927841065312	0.782136565688215	0.7829441235678036	0.16904027942450414	0.46530252209572553	-0.7544637548833498	0.1352428353577387	0.36777220318254145	-1.0232370165156481	0.14952603695883546	0.3224649447822549	-0.8447161013276268	0.34595292016020984	0.5171164046333986	-0.69642713239564	0.43475163722095905	0.6093320420981081	-0.45833935171901174	0.42376359093880794	0.34427855331499935	-0.32519638603796064	0.37256044239501196	0.2040463099793894	-0.27769289523436713	0.38665306667327376	0.21053945894716491	-0.2619987089253183	0.41914050637807315	0.26450710610596484	-0.23780355214651797	0.0013553019744227382	0.5049505958328401	-0.6706497307616733	-0.04430760404742267	0.6034839358696705	-0.4131828606539134	-0.009284905912439193	0.3977840738124186	-0.27712343107512477	0.05554275028552159	0.28805511797209327	-0.2423722008011541	0.034908022307072184	0.26921546896333765	-0.2231538338510382	0.013382017267385636	0.3055646027536865	-0.19197561198132518
251	4.826923076923077	0.32283830610374725	0.5581860983129756	-0.15139857147018962	0.35574783078759836	0.659974243928565	0.277846330039729	0.3830443590852108	0.7517472467826375	0.7212632207382041	0.3192237656692685	0.5003299345610849	0.7377815760232415	0.39167981325678564	0.5455034399834628	0.7442705582764997	0.3547404252507092	0.8445951542042465	0.7878966674244441	0.12065390992122088	0.5343323498946062	-0.14362087765017156	0.14507709980330596	0.6503728382830333	0.3014761943044651	0.17323473560303038	0.7289840780845666	0.7102312291577533	0.18442245315826103	0.5197512240517344	0.7456571032735243	0.12882272709122028	0.5785425288624921	0.7668512464302913	0.19150299651599825	0.7824957757393428	0.7830175979296429	0.16899463176944748	0.4653051109652653	-0.7544308261316007	0.13501751630255973	0.36828151613660376	-1.0229750873433816	0.14948983019977763	0.32236242495889633	-0.8446354507977513	0.34575020049152777	0.5171230973761627	-0.6998675319216159	0.4346715723442126	0.6095002410661357	-0.4583402597843502	0.4236798453801816	0.3445420991293387	-0.32522645132184835	0.3712332131815328	0.2097130833285058	-0.28405677524486533	0.3863112492359495	0.21148456636270596	-0.26876308880936883	0.4224270400750901	0.2747439215848028	-0.2368313841073819	0.0013513741297587589	0.5050552001472257	-0.6706062499188861	-0.044370879202509095	0.603543418461741	-0.41307214600513203	-0.009825764863864397	0.39662310834892545	-0.28098474973052634	0.05535590101945907	0.28697356636685245	-0.24277455904482015	0.03742197571887303	0.26921417975443684	-0.23071010843571257	0.015262037835538067	0.316859801535473	-0.19096899796732425
252	4.846153846153846	0.32345623494840287	0.557811239642597	-0.14765153651503907	0.35524876491293683	0.6608186225773797	0.2737157760554268	0.38303480922484956	0.7516295327733663	0.7212696723066043	0.31950537525254885	0.5002375844824488	0.7374882011543044	0.39332999656435386	0.5474422571999014	0.7488573557295665	0.3546989585848868	0.8444217348105918	0.7879206512256953	0.12073607038368402	0.5346774841044902	-0.14343761817899053	0.1451963285058999	0.6502456175337294	0.30142035714753734	0.17743190586218333	0.7133516288366023	0.7076437544458771	0.18438318193628567	0.5191533615610552	0.7453655661276867	0.13366469841996662	0.5628651356867579	0.7588160126200124	0.19189747017819542	0.7844534381134202	0.7838498975278245	0.16899504297405313	0.46545234430217447	-0.7544279495400226	0.13923397936087015	0.35622226981548033	-1.0185225677115766	0.14556653165613395	0.3338545827936826	-0.8416620239661191	0.345709386352174	0.5172385625789071	-0.6999948579769316	0.4344476920482679	0.6098557111041972	-0.4624758810429383	0.41256668164145244	0.3456598460578959	-0.3237706540789775	0.3718686978108161	0.20426124139779606	-0.2851186189491115	0.38612476485792296	0.21166256861793253	-0.27186943084643256	0.4110990012334257	0.2532857925649328	-0.2395506097701134	0.0013807033936144367	0.5052755484260828	-0.6706225194822667	-0.0480093538520676	0.6014356354659253	-0.41274405167941797	-0.009790528295829638	0.3967171502268256	-0.2810977156415478	0.05374431772277275	0.28452179387869936	-0.25341178134864484	0.033111809945015565	0.2667692212673538	-0.23507698153247808	0.020637804798902933	0.3047349573048956	-0.1934591657161921
253	4.865384615384615	0.32350288481012274	0.5574299770134267	-0.14765100307758589	0.35589372740909914	0.6599506175347288	0.2778049022613279	0.38300202458738813	0.7517077230926663	0.721306932053595	0.31931567868178024	0.5001164234786254	0.7375706977782651	0.3931237713105391	0.5473954185302367	0.7490549927124025	0.3546482487889514	0.8443887287137095	0.7879571651795885	0.1212392392519649	0.534260158268725	-0.13984068538269537	0.14507781285104948	0.6502879732095085	0.3015110861644293	0.17814012341893382	0.7122980646426861	0.7116183331472256	0.1843588447525131	0.519139435823581	0.7454015544108538	0.13371817870139707	0.5629249264547121	0.7588950221422104	0.191907426797889	0.7850423169032225	0.7843655027173088	0.16896393276256566	0.46547933370814143	-0.7542985392700965	0.13935745616518683	0.35601129859404435	-1.0184111807612355	0.14549813679778917	0.3326412458177458	-0.8418513483225228	0.3422575370229318	0.5308130153272166	-0.6996933222624778	0.4343573195907043	0.6096909737970547	-0.46246679065091856	0.4124652510158472	0.34533023728126594	-0.32704092724281186	0.36799504914988873	0.20200918067906226	-0.28532078141689154	0.38635625052653316	0.21182246946627656	-0.2721508808598082	0.4073128315756427	0.24363783411570125	-0.2410984875764435	0.001351923004775331	0.5052171690246499	-0.6706274834654368	-0.044938165511242675	0.6039011879437851	-0.4161258827317485	-0.0051038169297611645	0.3844075652952249	-0.2833809283168213	0.054225682308179625	0.2837488584514623	-0.2537817711349176	0.04508056767040128	0.25870102021158664	-0.24119200178503686	0.025360622215294396	0.29346929622442863	-0.19918173016737836
254	4.884615384615385	0.32744220944926555	0.5434017032493764	-0.14682588146957604	0.35593295081286347	0.6600796237317536	0.2779477601900991	0.3830116523444557	0.7516311854395468	0.7212923910897799	0.31920246266602403	0.49974978642251877	0.7375049324425185	0.39302047302104726	0.5468521204463651	0.7489752382440787	0.35471149010172837	0.8442662176550467	0.7878044084908099	0.12063284940327235	0.5348351078464013	-0.13997051338685662	0.14507714212952746	0.6502971958815359	0.30163831353985654	0.17814868836064598	0.7119354587560669	0.7114424910826223	0.18444902116948064	0.5192247838006815	0.7454251143032663	0.1337297252401491	0.5629750385122657	0.7588931414241101	0.1916900878025444	0.7841861908313107	0.7842371512293626	0.1648787937284077	0.4778972312888057	-0.7541055417346634	0.13935481310582234	0.3558851573575303	-1.0183344434428077	0.15471918162104983	0.3104756193357443	-0.8346361414167389	0.3420975280695623	0.5313178608081288	-0.6996858119613462	0.43454000441610696	0.609363567337806	-0.46205183031047675	0.41197360600738775	0.34567834025773875	-0.3270937226257683	0.36770351744075486	0.2018304143412987	-0.2858251919001327	0.38654576323833534	0.211847498446728	-0.27251758513639857	0.41079166125045363	0.2533598135176588	-0.24000049235989096	0.001349522334036972	0.5051502577326344	-0.6706183324791583	-0.04457175073894625	0.6038325620428517	-0.4127074960654557	-0.005468827942547384	0.3832214292932766	-0.29064728296968384	0.05424117113213386	0.28179877662229574	-0.25450187113926187	0.039583743998011026	0.26880779784126396	-0.24349253489344477	0.024474081777181116	0.2913866460967143	-0.21110809606791464
